<svg xmlns="http://www.w3.org/2000/svg" width="100" height="100" viewBox="0 0 100 100">

<circle cx="50" cy="50" r="45" fill="#111111" opacity="0.42"/>

<g fill="none" stroke="#ffffff" stroke-width="5" stroke-linecap="round" stroke-linejoin="round">
  <path d="M31 61 C25 61 21 57 23 50 L26 39 C28 32 33 29 40 32 H60 C67 29 72 32 74 39 L77 50 C79 57 75 61 69 61 C64 61 61 55 57 52 H43 C39 55 36 61 31 61 Z"/>
  <path d="M36 42 V54"/>
  <path d="M30 48 H42"/>
</g>
<circle cx="62" cy="45" r="3.5" fill="#ffffff"/>
<circle cx="70" cy="52" r="3.5" fill="#ffffff"/>
</svg>
